<svg xmlns="http://www.w3.org/2000/svg" width="40.283" height="60" viewBox="0 0 40.283 60">
  <g id="グループ_45" data-name="グループ 45" transform="translate(-8226.541 -1694)">
    <path id="パス_156" data-name="パス 156" d="M352.056,83.074q-.043-.088-.093-.172a2.5,2.5,0,0,0-.279-.38c-.01-.011-.019-.024-.029-.035l0,0a2.51,2.51,0,0,0-.343-.308,2.6,2.6,0,0,0-1.57-.513H333.932a2.587,2.587,0,0,0-1.732.643l-.023.022a2.5,2.5,0,0,0-.591.805,2.554,2.554,0,0,0-.17.5q-.022.1-.037.2a2.722,2.722,0,0,0-.017.631l.815,9.32,1.184,13.545q.013.145.039.289a3.546,3.546,0,0,0,.273.846,4.084,4.084,0,0,0,.3.53,4.348,4.348,0,0,0,.477.595,4.3,4.3,0,0,0,.335.32q.117.1.24.189a3.9,3.9,0,0,0,.512.317,3.306,3.306,0,0,0,.828.3l.348.073.794,14.227a1.972,1.972,0,0,0,1.95,1.878h4.763a1.89,1.89,0,0,0,.425-.048q.069-.016.136-.037c.059-.018.118-.039.175-.063a1.976,1.976,0,0,0,.326-.174,2.006,2.006,0,0,0,.628-.663,1.913,1.913,0,0,0,.261-.893l.765-13.461.029-.765.348-.073a3.739,3.739,0,0,0,1.806-1.011,4.362,4.362,0,0,0,.407-.46,4.253,4.253,0,0,0,.337-.51,3.782,3.782,0,0,0,.345-.829,3.2,3.2,0,0,0,.105-.575l2-22.865a2.623,2.623,0,0,0-.252-1.393" transform="translate(7914.505 1627.105)" fill="#22ac38"/>
    <path id="パス_157" data-name="パス 157" d="M254.252,12.478a6.239,6.239,0,1,0-6.239-6.239,6.239,6.239,0,0,0,6.239,6.239" transform="translate(7982.772 1694)" fill="#22ac38"/>
    <path id="パス_158" data-name="パス 158" d="M240.264,84.782a6.278,6.278,0,0,1,.526-3.119h-13.67a2.54,2.54,0,0,0-2.57,2.8l2,22.865a4.042,4.042,0,0,0,3,3.384l.348.073.794,14.227a1.972,1.972,0,0,0,1.95,1.878h4.763a1.973,1.973,0,0,0,1.95-1.878l.794-14.227.348-.073a3.878,3.878,0,0,0,2.138-1.379,6.859,6.859,0,0,1-.372-1.69Z" transform="translate(8002 1627.105)" fill="#22ac38"/>
    <path id="パス_159" data-name="パス 159" d="M357.218,11.151a6.238,6.238,0,1,0-2.4-4.912,6.21,6.21,0,0,0,2.4,4.912" transform="translate(7895.278 1694)" fill="#22ac38"/>
  </g>
</svg>
