<svg xmlns="http://www.w3.org/2000/svg" width="99.29" height="60" viewBox="0 0 99.29 60">
  <g id="グループ_42" data-name="グループ 42" transform="translate(-9579.965 -1694)">
    <path id="パス_174" data-name="パス 174" d="M1607.676,12.478a6.239,6.239,0,1,0-6.239-6.239,6.239,6.239,0,0,0,6.239,6.239" transform="translate(7982.771 1694)" fill="#e60012"/>
    <path id="パス_175" data-name="パス 175" d="M1593.688,84.782a6.278,6.278,0,0,1,.526-3.119h-13.67a2.54,2.54,0,0,0-2.569,2.8l2,22.865a4.042,4.042,0,0,0,3,3.384l.348.073.794,14.227a1.972,1.972,0,0,0,1.95,1.878h4.763a1.973,1.973,0,0,0,1.95-1.878l.794-14.227.348-.073a3.878,3.878,0,0,0,2.138-1.379,6.859,6.859,0,0,1-.372-1.69Z" transform="translate(8002 1627.105)" fill="#e60012"/>
    <path id="パス_176" data-name="パス 176" d="M1700.92,84.782a6.276,6.276,0,0,1,.526-3.119h-14.089a2.657,2.657,0,0,0-1.073.221,2.516,2.516,0,0,0-.681.444c-.056.051-.11.1-.161.159a2.509,2.509,0,0,0-.429.647,2.562,2.562,0,0,0-.17.5q-.022.1-.037.2a2.723,2.723,0,0,0-.017.631l.815,9.32,1.185,13.545a3.827,3.827,0,0,0,.982,2.151,4.318,4.318,0,0,0,.438.429c.078.066.158.129.24.189a3.928,3.928,0,0,0,.512.317,3.6,3.6,0,0,0,.348.155c.088.034.177.065.268.091.07.02.141.038.212.053l.348.073.794,14.227a1.972,1.972,0,0,0,1.95,1.878h4.763a1.89,1.89,0,0,0,.425-.048c.046-.01.091-.023.135-.037s.118-.039.175-.063a1.984,1.984,0,0,0,.326-.174,2.006,2.006,0,0,0,.628-.663,1.913,1.913,0,0,0,.261-.893l.794-14.227.348-.073a3.207,3.207,0,0,0,.626-.2q.1-.045.2-.1a3.9,3.9,0,0,0,.512-.317,4.3,4.3,0,0,0,.466-.4,4.363,4.363,0,0,0,.623-.771,6.761,6.761,0,0,1-.243-1.287Z" transform="translate(7914.504 1627.105)" fill="#e60012"/>
    <path id="パス_177" data-name="パス 177" d="M1710.643,11.151a6.238,6.238,0,1,0-2.4-4.912,6.21,6.21,0,0,0,2.4,4.912" transform="translate(7895.277 1694)" fill="#e60012"/>
    <path id="パス_178" data-name="パス 178" d="M1810.379,84.782a6.278,6.278,0,0,1,.527-3.119H1796.49a2.546,2.546,0,0,0-2.57,2.8l.605,6.92h0l1.395,15.945a3.413,3.413,0,0,0,.313,1.135,4.087,4.087,0,0,0,.259.468c.013.02.024.042.038.062a4.354,4.354,0,0,0,.812.915,4.164,4.164,0,0,0,.364.276,3.47,3.47,0,0,0,1.216.529l.348.073.028.765.766,13.461a1.893,1.893,0,0,0,.052.377,1.94,1.94,0,0,0,.208.516,1.989,1.989,0,0,0,.214.3q.06.07.127.133a2,2,0,0,0,.287.23,1.974,1.974,0,0,0,.326.174,1.9,1.9,0,0,0,.735.148h4.763a1.906,1.906,0,0,0,.735-.148q.086-.036.167-.079a2.01,2.01,0,0,0,.572-.458c.04-.046.078-.095.114-.145a1.974,1.974,0,0,0,.186-.319,1.926,1.926,0,0,0,.123-.352,1.892,1.892,0,0,0,.052-.377l.766-13.461.029-.765.348-.073a3.22,3.22,0,0,0,.626-.2q.1-.045.2-.1a3.915,3.915,0,0,0,.512-.317,4.278,4.278,0,0,0,1.313-1.566,6.672,6.672,0,0,1-.14-.887Z" transform="translate(7825.106 1627.105)" fill="#e60012"/>
    <path id="パス_179" data-name="パス 179" d="M1819.775,11.151a6.238,6.238,0,1,0-2.4-4.912,6.209,6.209,0,0,0,2.4,4.912" transform="translate(7805.881 1694)" fill="#e60012"/>
    <path id="パス_180" data-name="パス 180" d="M1920.466,84.782a6.276,6.276,0,0,1,.526-3.119H1907.43a2.571,2.571,0,0,0-1.916.824,2.768,2.768,0,0,0-.429.647,2.6,2.6,0,0,0-.235,1.048,2.817,2.817,0,0,0,.01.286l.442,5.052.558,6.381,1,11.433a3.208,3.208,0,0,0,.105.575,3.726,3.726,0,0,0,.242.627,4.13,4.13,0,0,0,.262.462,4.335,4.335,0,0,0,.812.915,3.926,3.926,0,0,0,.876.563,3.648,3.648,0,0,0,.347.141c.073.025.147.047.221.066.045.012.09.024.135.033l.348.073.794,14.227a1.964,1.964,0,0,0,.889,1.556,1.984,1.984,0,0,0,.326.174q.086.036.175.063c.045.014.09.026.135.037a1.892,1.892,0,0,0,.425.048h4.763a1.888,1.888,0,0,0,.425-.048c.046-.01.091-.023.135-.037.06-.018.118-.039.175-.063a1.983,1.983,0,0,0,1.215-1.73l.794-14.227.348-.073a3.218,3.218,0,0,0,.626-.2q.1-.045.2-.1a3.9,3.9,0,0,0,.512-.317,4.25,4.25,0,0,0,.466-.4c.091-.089.176-.183.259-.28a6.872,6.872,0,0,1-.406-1.779Z" transform="translate(7734.229 1627.105)" fill="#e60012"/>
    <path id="パス_181" data-name="パス 181" d="M1930.716,11.151a6.238,6.238,0,1,0-2.4-4.912,6.208,6.208,0,0,0,2.4,4.912" transform="translate(7715.003 1694)" fill="#e60012"/>
    <path id="パス_182" data-name="パス 182" d="M2031.679,82.9a2.5,2.5,0,0,0-1.15-1.018,2.627,2.627,0,0,0-.788-.207,2.8,2.8,0,0,0-.286-.014h-15.807a2.587,2.587,0,0,0-1.7.618,2.5,2.5,0,0,0-.523.621,2.531,2.531,0,0,0-.219.476,2.626,2.626,0,0,0-.137.8,2.747,2.747,0,0,0,.01.286l.869,9.933.131,1.5,1,11.433a3.211,3.211,0,0,0,.105.575,4.025,4.025,0,0,0,.83,1.519,4.154,4.154,0,0,0,1.236.992,3.5,3.5,0,0,0,.407.178c.069.025.139.048.209.068s.141.038.212.053l.348.073.794,14.227a1.916,1.916,0,0,0,.261.893,1.989,1.989,0,0,0,.214.3c.04.046.082.091.127.133a1.987,1.987,0,0,0,.287.23,1.951,1.951,0,0,0,.326.174,1.9,1.9,0,0,0,.735.148h4.763a1.9,1.9,0,0,0,.735-.148,1.99,1.99,0,0,0,1.2-1.539,1.834,1.834,0,0,0,.017-.191l.766-13.462.029-.765.347-.073a3.217,3.217,0,0,0,.627-.2q.1-.045.2-.1a3.889,3.889,0,0,0,.512-.317,4.233,4.233,0,0,0,.466-.4,3.91,3.91,0,0,0,1.194-2.373l2-22.865a2.606,2.606,0,0,0-.346-1.565" transform="translate(7647.22 1627.105)" fill="#e60012"/>
    <path id="パス_183" data-name="パス 183" d="M2036.934,11.151a6.238,6.238,0,1,0-2.4-4.912,6.209,6.209,0,0,0,2.4,4.912" transform="translate(7627.992 1694)" fill="#e60012"/>
  </g>
</svg>
