<svg xmlns="http://www.w3.org/2000/svg" width="21" height="21" viewBox="0 0 21 21">
  <g id="グループ_28" data-name="グループ 28" transform="translate(403 -1156)">
    <g id="グループ_30" data-name="グループ 30" transform="translate(-403 1156)">
      <path id="パス_118" data-name="パス 118" d="M20.173,6.4A10.485,10.485,0,0,0,14.593.827,10.228,10.228,0,0,0,10.5,0,10.22,10.22,0,0,0,6.4.827,10.484,10.484,0,0,0,.827,6.407,10.227,10.227,0,0,0,0,10.5,10.217,10.217,0,0,0,.827,14.6a10.482,10.482,0,0,0,5.58,5.577A10.228,10.228,0,0,0,10.5,21a10.219,10.219,0,0,0,4.094-.827,10.483,10.483,0,0,0,5.577-5.58A10.227,10.227,0,0,0,21,10.5,10.22,10.22,0,0,0,20.173,6.4" transform="translate(0 0)" fill="#26a845"/>
      <path id="パス_119" data-name="パス 119" d="M36.612,54.773l7.447-7.41L42.891,46.2l-6.28,6.249-3.157-3.141L32.288,50.47Z" transform="translate(-27.684 -39.582)" fill="#fff"/>
      <rect id="長方形_24" data-name="長方形 24" width="21" height="21" transform="translate(0 0)" fill="none"/>
    </g>
  </g>
</svg>
