<svg xmlns="http://www.w3.org/2000/svg" width="26.027" height="20.447" viewBox="0 0 26.027 20.447">
	<g id="グループ_11" data-name="グループ 11" transform="translate(-1129.897 -1517.783)">
		<path id="パス_52" data-name="パス 52" d="M1142.91,1525.943a4.08,4.08,0,1,0-4.08-4.08A4.08,4.08,0,0,0,1142.91,1525.943Z" fill="#4b6dee"/>
		<path id="パス_53" data-name="パス 53" d="M1151.9,1527.776a3.042,3.042,0,1,0-3.042-3.042A3.042,3.042,0,0,0,1151.9,1527.776Z" fill="#4b6dee"/>
		<path id="パス_54" data-name="パス 54" d="M1151.938,1528.475a4.419,4.419,0,0,0-2.711.85,4.194,4.194,0,0,1,.291.855l.028.131v6.626h2.869a3.509,3.509,0,0,0,3.509-3.509v-2.295A3.91,3.91,0,0,0,1151.938,1528.475Z" fill="#4b6dee"/>
		<path id="パス_55" data-name="パス 55" d="M1133.917,1521.692a3.042,3.042,0,1,0,3.042,3.042A3.041,3.041,0,0,0,1133.917,1521.692Z" fill="#4b6dee"/>
		<path id="パス_56" data-name="パス 56" d="M1129.9,1531.133v2.295a3.509,3.509,0,0,0,3.509,3.509h2.869v-6.626l.028-.131a4.2,4.2,0,0,1,.291-.855,4.421,4.421,0,0,0-2.711-.85A3.909,3.909,0,0,0,1129.9,1531.133Z" fill="#4b6dee"/>
		<path id="パス_57" data-name="パス 57" d="M1142.91,1526.881c-3.376,0-5.064,2.251-5.346,3.564v5.871a1.914,1.914,0,0,0,1.914,1.914h6.864a1.914,1.914,0,0,0,1.914-1.914v-5.871C1147.975,1529.132,1146.287,1526.881,1142.91,1526.881Z" fill="#4b6dee"/>
	</g>
</svg>
