<svg xmlns="http://www.w3.org/2000/svg" width="27.397" height="27.397" viewBox="0 0 27.397 27.397">
	<g id="グループ_13" data-name="グループ 13" transform="translate(-1129.211 -1646.307)">
		<path id="パス_58" data-name="パス 58" d="M1156.091,1662.752,1154,1661.1a1.378,1.378,0,0,1-.517-1.089V1660a1.378,1.378,0,0,1,.517-1.091l2.087-1.649a1.361,1.361,0,0,0,.414-1.589l-.917-2.214a1.362,1.362,0,0,0-1.416-.831l-2.642.311a1.382,1.382,0,0,1-1.137-.406l-.01-.01a1.384,1.384,0,0,1-.4-1.136l.31-2.641a1.361,1.361,0,0,0-.831-1.417l-2.213-.917a1.363,1.363,0,0,0-1.59.414l-1.648,2.088a1.382,1.382,0,0,1-1.089.517h-.013a1.382,1.382,0,0,1-1.092-.517l-1.648-2.088a1.362,1.362,0,0,0-1.589-.414l-2.214.917a1.361,1.361,0,0,0-.831,1.417l.31,2.641a1.38,1.38,0,0,1-.406,1.138l-.009.009a1.382,1.382,0,0,1-1.136.405l-2.641-.311a1.363,1.363,0,0,0-1.417.831l-.917,2.214a1.361,1.361,0,0,0,.414,1.589l2.088,1.649a1.38,1.38,0,0,1,.517,1.088v.014a1.38,1.38,0,0,1-.517,1.091l-2.088,1.649a1.361,1.361,0,0,0-.414,1.589l.917,2.213a1.362,1.362,0,0,0,1.417.832l2.641-.311a1.383,1.383,0,0,1,1.138.406l.009.01a1.376,1.376,0,0,1,.4,1.135l-.31,2.642a1.361,1.361,0,0,0,.831,1.416l2.214.917a1.361,1.361,0,0,0,1.589-.414l1.648-2.087a1.383,1.383,0,0,1,1.089-.517h.014a1.38,1.38,0,0,1,1.091.517l1.649,2.087a1.361,1.361,0,0,0,1.589.414l2.213-.917a1.359,1.359,0,0,0,.831-1.416l-.31-2.642a1.381,1.381,0,0,1,.406-1.137l.01-.01a1.381,1.381,0,0,1,1.135-.4l2.642.311a1.361,1.361,0,0,0,1.416-.832l.917-2.213A1.361,1.361,0,0,0,1156.091,1662.752Zm-11.827,1.2a4.161,4.161,0,1,1,2.252-5.437A4.161,4.161,0,0,1,1144.264,1663.95Z" fill="#4b6dee"/>
	</g>
</svg>
