<svg xmlns="http://www.w3.org/2000/svg" width="28.205" height="28.205" viewBox="0 0 28.205 28.205">
  <g id="グループ_3" data-name="グループ 3" transform="translate(-1128.808 -1249.904)">
    <path id="パス_5" data-name="パス 5" d="M1142.91,1249.9a14.1,14.1,0,1,0,14.1,14.1A14.1,14.1,0,0,0,1142.91,1249.9Zm0,25.008a10.906,10.906,0,1,1,10.906-10.906A10.918,10.918,0,0,1,1142.91,1274.912Z" fill="#ee5d4b"/>
    <path id="パス_6" data-name="パス 6" d="M1142.91,1254.092a9.914,9.914,0,1,0,9.914,9.914A9.925,9.925,0,0,0,1142.91,1254.092Zm4.307,9.026h-2.967l-.319.5v1.188h3.286v1.686h-3.286v2.545h-2.041v-2.545H1138.6V1264.8h3.286v-1.186l-.319-.5H1138.6v-1.439h2.04l-1.734-2.7h1.729l2.27,3.532,2.273-3.532h1.728l-1.732,2.7h2.039v1.439Z" fill="#ee5d4b"/>
  </g>
</svg>
