<svg xmlns="http://www.w3.org/2000/svg" width="20.967" height="60" viewBox="0 0 20.967 60">
  <g id="グループ_41" data-name="グループ 41" transform="translate(-8002 -1694)">
    <path id="パス_154" data-name="パス 154" d="M29.711,12.478a6.239,6.239,0,1,0-6.239-6.239,6.239,6.239,0,0,0,6.239,6.239" transform="translate(7982.772 1694)" fill="#036eb8"/>
    <path id="パス_155" data-name="パス 155" d="M18.387,81.663a2.54,2.54,0,0,1,2.57,2.8l-2,22.865a4.042,4.042,0,0,1-3,3.384l-.348.073-.794,14.227a1.972,1.972,0,0,1-1.95,1.878H8.1a1.973,1.973,0,0,1-1.95-1.878L5.358,110.79l-.348-.073a4.042,4.042,0,0,1-3-3.384l-2-22.865a2.54,2.54,0,0,1,2.57-2.8Z" transform="translate(8002 1627.105)" fill="#036eb8"/>
  </g>
</svg>
