<svg xmlns="http://www.w3.org/2000/svg" width="24.273" height="14.673" viewBox="0 0 24.273 14.673">
  <path id="パス_189" data-name="パス 189" d="M139.273,232.824v-3.6a1.509,1.509,0,0,0-1.5-1.5H116.5a1.509,1.509,0,0,0-1.5,1.5v3.6a2.332,2.332,0,0,1,0,4.461v3.6a1.509,1.509,0,0,0,1.5,1.5h21.264a1.509,1.509,0,0,0,1.5-1.5v-3.6a2.332,2.332,0,0,1,0-4.461Zm-5.893,8.77a.821.821,0,1,1,.821-.821A.82.82,0,0,1,133.38,241.594Zm0-2.849a.821.821,0,1,1,.821-.821A.821.821,0,0,1,133.38,238.744Zm0-2.849a.821.821,0,1,1,.821-.821A.82.82,0,0,1,133.38,235.895Zm0-2.849a.821.821,0,1,1,.821-.821A.82.82,0,0,1,133.38,233.046Zm0-2.849a.821.821,0,1,1,.821-.821A.821.821,0,0,1,133.38,230.2Z" transform="translate(-115 -227.718)" fill="#ee5d4b"/>
</svg>
