<svg xmlns="http://www.w3.org/2000/svg" width="23.092" height="23.092" viewBox="0 0 23.092 23.092">
	<g id="グループ_9" data-name="グループ 9" transform="translate(-1241.343 -989.212)">
		<path id="パス_46" data-name="パス 46" d="M1261.053,992.593a11.546,11.546,0,1,0,3.382,8.165A11.514,11.514,0,0,0,1261.053,992.593Zm-1.693,1.694a9.152,9.152,0,1,1-6.471-2.68A9.115,9.115,0,0,1,1259.36,994.287Z" fill="#4b6dee"/>
		<path id="パス_47" data-name="パス 47" d="M1252.469,1002.9a.513.513,0,0,0,.14.27.368.368,0,0,0,.28.129.387.387,0,0,0,.42-.4l.841-6.459a4.272,4.272,0,0,0,.021-.485,1.341,1.341,0,0,0-.334-.883,1.166,1.166,0,0,0-.948-.4,1.145,1.145,0,0,0-.959.409,1.355,1.355,0,0,0-.324.873,4.571,4.571,0,0,0,.022.485Z" fill="#4b6dee"/>
		<path id="パス_48" data-name="パス 48" d="M1252.889,1006.837a1.3,1.3,0,1,0-.927-2.22,1.246,1.246,0,0,0-.377.917,1.291,1.291,0,0,0,.377.915A1.242,1.242,0,0,0,1252.889,1006.837Z" fill="#4b6dee"/>
	</g>
</svg>
