<svg xmlns="http://www.w3.org/2000/svg" width="60.018" height="60" viewBox="0 0 60.018 60">
  <g id="グループ_44" data-name="グループ 44" transform="translate(-8559.062 -1694)">
    <path id="パス_160" data-name="パス 160" d="M586.773,12.478a6.239,6.239,0,1,0-6.239-6.239,6.239,6.239,0,0,0,6.239,6.239" transform="translate(7982.772 1694)" fill="#f6cd4c"/>
    <path id="パス_161" data-name="パス 161" d="M572.785,84.782a6.278,6.278,0,0,1,.526-3.119h-13.67a2.54,2.54,0,0,0-2.57,2.8l2,22.865a4.042,4.042,0,0,0,3,3.384l.348.073.794,14.227a1.972,1.972,0,0,0,1.95,1.878h4.763a1.973,1.973,0,0,0,1.95-1.878l.794-14.227.348-.073a3.878,3.878,0,0,0,2.138-1.379,6.861,6.861,0,0,1-.372-1.69Z" transform="translate(8002 1627.105)" fill="#f6cd4c"/>
    <path id="パス_162" data-name="パス 162" d="M680.02,84.782a6.278,6.278,0,0,1,.526-3.119H666.457a2.583,2.583,0,0,0-1.755.665,2.516,2.516,0,0,0-.777,1.4c-.012.064-.022.13-.029.2a2.663,2.663,0,0,0-.009.544l.815,9.32,1.185,13.545a3.293,3.293,0,0,0,.2.858,3.894,3.894,0,0,0,.253.546,4.242,4.242,0,0,0,.336.51q.094.122.2.237t.212.222a4.177,4.177,0,0,0,.616.5,3.785,3.785,0,0,0,.362.216,3.484,3.484,0,0,0,.348.155c.088.034.178.065.268.091.07.02.141.038.212.053l.348.073.794,14.227a1.885,1.885,0,0,0,.052.377,1.941,1.941,0,0,0,.209.516,1.971,1.971,0,0,0,1.689.985h4.763a1.971,1.971,0,0,0,1.689-.985,1.913,1.913,0,0,0,.261-.893l.794-14.227.348-.073a3.077,3.077,0,0,0,.352-.1,3.408,3.408,0,0,0,.343-.137,3.719,3.719,0,0,0,.33-.174q.162-.1.315-.208a4.255,4.255,0,0,0,.466-.4q.089-.087.172-.179a4.368,4.368,0,0,0,.45-.592,6.765,6.765,0,0,1-.243-1.287Z" transform="translate(7914.5 1627.105)" fill="#f6cd4c"/>
    <path id="パス_163" data-name="パス 163" d="M689.74,11.151a6.238,6.238,0,1,0-2.4-4.912,6.21,6.21,0,0,0,2.4,4.912" transform="translate(7895.277 1694)" fill="#f6cd4c"/>
    <path id="パス_164" data-name="パス 164" d="M791.393,81.663H775.586a2.541,2.541,0,0,0-2.58,2.519,2.764,2.764,0,0,0,.01.286l.3,3.4.307,3.516h0l1.394,15.945a3.38,3.38,0,0,0,.279,1.053c.025.058.052.116.08.173q.086.174.19.34l.022.037c.068.106.138.211.216.311q.094.122.2.237t.212.222a4.161,4.161,0,0,0,.717.564,3.415,3.415,0,0,0,1.089.447l.348.073.794,14.227a1.888,1.888,0,0,0,.053.377,1.93,1.93,0,0,0,.209.516,1.971,1.971,0,0,0,1.689.985h4.763a1.978,1.978,0,0,0,1.9-1.5,1.9,1.9,0,0,0,.052-.377l.794-14.227.348-.073a3.1,3.1,0,0,0,.352-.1,3.379,3.379,0,0,0,.342-.137q.168-.078.331-.174t.315-.208a4.231,4.231,0,0,0,.466-.4c.091-.089.179-.183.262-.28a4.289,4.289,0,0,0,.444-.623q.1-.164.176-.336.063-.137.115-.277a3.408,3.408,0,0,0,.158-.569q.027-.144.039-.289l2-22.865c.008-.089.01-.178.01-.265,0-.007,0-.014,0-.021a2.535,2.535,0,0,0-2.58-2.519" transform="translate(7825.107 1627.105)" fill="#f6cd4c"/>
    <path id="パス_165" data-name="パス 165" d="M798.872,11.151a6.238,6.238,0,1,0-2.4-4.912,6.21,6.21,0,0,0,2.4,4.912" transform="translate(7805.88 1694)" fill="#f6cd4c"/>
  </g>
</svg>
