<svg xmlns="http://www.w3.org/2000/svg" width="80.082" height="60" viewBox="0 0 80.082 60">
  <g id="グループ_43" data-name="グループ 43" transform="translate(-9000.484 -1694)">
    <path id="パス_166" data-name="パス 166" d="M1028.2,12.478a6.239,6.239,0,1,0-6.239-6.239,6.239,6.239,0,0,0,6.239,6.239" transform="translate(7982.772 1694)" fill="#f39800"/>
    <path id="パス_167" data-name="パス 167" d="M1014.208,84.782a6.278,6.278,0,0,1,.526-3.119h-13.67a2.541,2.541,0,0,0-2.57,2.8l2,22.865a4.042,4.042,0,0,0,3,3.384l.348.073.794,14.227a1.972,1.972,0,0,0,1.95,1.878h4.763a1.973,1.973,0,0,0,1.95-1.878l.794-14.227.348-.073a3.878,3.878,0,0,0,2.138-1.379,6.858,6.858,0,0,1-.372-1.69Z" transform="translate(8002 1627.105)" fill="#f39800"/>
    <path id="パス_168" data-name="パス 168" d="M1121.439,84.782a6.277,6.277,0,0,1,.526-3.119h-14.089a2.587,2.587,0,0,0-1.732.642l-.023.023a2.5,2.5,0,0,0-.591.805,2.562,2.562,0,0,0-.17.5q-.022.1-.037.2a2.73,2.73,0,0,0-.017.631l.815,9.32,1.185,13.545a3.827,3.827,0,0,0,.982,2.151,4.3,4.3,0,0,0,.438.429q.117.1.239.189a3.533,3.533,0,0,0,1.34.616l.348.073.794,14.227a1.9,1.9,0,0,0,.106.557q.031.088.07.172a1.982,1.982,0,0,0,1.774,1.149h4.763a1.892,1.892,0,0,0,.425-.048c.046-.01.091-.023.135-.037.06-.018.118-.04.175-.063a1.979,1.979,0,0,0,.326-.174,2.012,2.012,0,0,0,.527-.508,1.987,1.987,0,0,0,.13-.211,1.964,1.964,0,0,0,.092-.2,1.876,1.876,0,0,0,.14-.642l.794-14.227.348-.073a3.417,3.417,0,0,0,1.089-.447,4.221,4.221,0,0,0,.928-.787,4.308,4.308,0,0,0,.411-.548,6.77,6.77,0,0,1-.243-1.287Z" transform="translate(7914.504 1627.105)" fill="#f39800"/>
    <path id="パス_169" data-name="パス 169" d="M1131.163,11.151a6.238,6.238,0,1,0-2.4-4.912,6.209,6.209,0,0,0,2.4,4.912" transform="translate(7895.277 1694)" fill="#f39800"/>
    <path id="パス_170" data-name="パス 170" d="M1230.9,84.782a6.278,6.278,0,0,1,.526-3.119h-14.416a2.588,2.588,0,0,0-1.732.642,2.767,2.767,0,0,0-.492.6,2.606,2.606,0,0,0-.346,1.565l.605,6.92h0l1.394,15.945a3.413,3.413,0,0,0,.313,1.135,4.032,4.032,0,0,0,.259.468c.013.02.024.042.038.062a4.353,4.353,0,0,0,.812.915,4.093,4.093,0,0,0,.408.3,3.745,3.745,0,0,0,.488.27,3.579,3.579,0,0,0,.337.136,2.97,2.97,0,0,0,.346.1l.348.073.794,14.227a1.9,1.9,0,0,0,.106.557q.031.088.07.172a1.983,1.983,0,0,0,.3.464q.06.07.127.133a1.993,1.993,0,0,0,.613.4,1.906,1.906,0,0,0,.735.148h4.763a1.906,1.906,0,0,0,.735-.148c.057-.024.113-.05.167-.079a2,2,0,0,0,.307-.2,2.02,2.02,0,0,0,.265-.255q.06-.07.114-.145a1.973,1.973,0,0,0,.186-.319q.039-.084.07-.172a1.9,1.9,0,0,0,.106-.557l.794-14.227.348-.073a3.417,3.417,0,0,0,1.089-.447,4.221,4.221,0,0,0,.928-.787,4.291,4.291,0,0,0,.532-.747c.037-.066.07-.134.1-.2a6.673,6.673,0,0,1-.14-.887Z" transform="translate(7825.107 1627.105)" fill="#f39800"/>
    <path id="パス_171" data-name="パス 171" d="M1240.3,11.151a6.238,6.238,0,1,0-2.4-4.912,6.21,6.21,0,0,0,2.4,4.912" transform="translate(7805.88 1694)" fill="#f39800"/>
    <path id="パス_172" data-name="パス 172" d="M1346.1,83.133a2.5,2.5,0,0,0-.614-.828,2.586,2.586,0,0,0-1.732-.643h-15.807a2.586,2.586,0,0,0-1.732.643,2.5,2.5,0,0,0-.4.452h0a2.5,2.5,0,0,0-.217.376,2.6,2.6,0,0,0-.235,1.048,2.783,2.783,0,0,0,.01.286l.442,5.052h0l.558,6.381,1,11.433a3.177,3.177,0,0,0,.105.575,3.7,3.7,0,0,0,.242.627,4.093,4.093,0,0,0,.262.462,4.348,4.348,0,0,0,.811.915,3.637,3.637,0,0,0,1.579.8l.348.073.794,14.227a1.9,1.9,0,0,0,.106.557q.031.088.07.172a1.973,1.973,0,0,0,.186.319,2.014,2.014,0,0,0,.527.508,1.97,1.97,0,0,0,.326.174q.086.036.175.063c.044.014.09.026.135.037a1.892,1.892,0,0,0,.425.048h4.763a1.892,1.892,0,0,0,.425-.048c.046-.01.091-.023.135-.037q.089-.027.175-.063a1.965,1.965,0,0,0,.326-.174,2.014,2.014,0,0,0,.527-.508,1.974,1.974,0,0,0,.186-.319q.039-.084.07-.172a1.9,1.9,0,0,0,.106-.557l.794-14.227.348-.073a3.417,3.417,0,0,0,1.089-.447,4.221,4.221,0,0,0,.928-.787,4.278,4.278,0,0,0,.532-.747,3.9,3.9,0,0,0,.253-.547,3.3,3.3,0,0,0,.2-.858l2-22.865a2.818,2.818,0,0,0,.01-.286,2.6,2.6,0,0,0-.235-1.048" transform="translate(7734.23 1627.105)" fill="#f39800"/>
    <path id="パス_173" data-name="パス 173" d="M1351.235,11.151a6.238,6.238,0,1,0-2.4-4.912,6.21,6.21,0,0,0,2.4,4.912" transform="translate(7715.003 1694)" fill="#f39800"/>
  </g>
</svg>
